<svg xmlns="http://www.w3.org/2000/svg" xmlns:xlink="http://www.w3.org/1999/xlink" width="1407.508" height="1028.26" viewBox="0 0 1126.0066 822.60819"><defs><linearGradient id="a"><stop offset="0" stop-color="#b00"/><stop offset="1" stop-color="#b00" stop-opacity="0"/></linearGradient><linearGradient xlink:href="#a" id="i" x1="739.134" y1="303.531" x2="816.574" y2="303.531" gradientUnits="userSpaceOnUse" gradientTransform="translate(-31.34 24.316)"/><filter id="h"><feGaussianBlur stdDeviation=".373"/></filter><filter id="c"><feGaussianBlur stdDeviation="4.659"/></filter><linearGradient id="b"><stop offset="0" stop-color="#b00"/><stop offset="1" stop-color="#b00" stop-opacity="0"/></linearGradient><filter id="e"><feGaussianBlur stdDeviation="3.244"/></filter><filter id="d" x="-.041" width="1.081" y="-.174" height="1.348"><feGaussianBlur stdDeviation="3.244"/></filter><filter id="f"><feGaussianBlur stdDeviation="3.244"/></filter><filter id="g"><feGaussianBlur stdDeviation="5.332"/></filter></defs><path style="line-height:125%" d="M616.5-904.375c-8.453-1.18-12.01 7.794-16.5 13.03-6.17 4.158-5.492 14.107.75 17.876 64.62 70.542 101.676 163.173 111.93 257.674 7.87 68.19 5.128 137.505-5.476 205.187-10.416 62.29-33.256 122.538-68.36 175.14-13.04 20.28-27.812 39.43-43.032 58.25-2.744 8.267 6.325 12.846 11.125 17.658 4.094 4.656 12.24 8.37 17.132 2.595 68.997-58.52 120.25-137.13 146.74-223.656 28.113-91.105 29.627-190.272 6.012-282.558-12.874-48.858-35.903-94.343-64.358-135.898-26.202-39.645-56.784-77.072-95.214-105.36l-.75.063z" transform="rotate(90 1.376 5.156)" font-size="796.727" font-weight="400" letter-spacing="0" word-spacing="0" fill="#afafaf" filter="url(#c)" font-family="Sans"/><path d="M159.85 618.014l.39-4.668 12.837-14.783h4.668c53.946 44.868 108.54 76.25 163.78 94.145 55.243 18.154 121.636 27.23 199.183 27.232 140.568 0 254.423-40.46 341.565-121.377h4.28l15.172 12.06.39 4.28c-29.31 39.94-76.25 78.712-140.83 116.318-64.32 37.866-140.697 56.8-229.136 56.8-71.582 0-139.532-14.395-203.85-43.183-64.58-28.53-120.73-70.803-168.45-126.823" style="-inkscape-font-specification:Palatino Linotype Bold Italic" font-weight="700" font-family="Palatino Linotype" font-size="796.727" letter-spacing="0" word-spacing="0" fill="#b00"/><path style="line-height:125%;-inkscape-font-specification:Liberation Sans" d="M800.888 311.262v46.125c7.762 1.44 12.077-.568 9.968-9-2.17-8.462 2.335-10.248 10-8.875 4.77-1.44 15.98 3.563 14.625-4 2.234-8.556-8.922-3.722-14-4.968-6.984.777-13.208.792-10.624-8-1.957-8.093 9.284-2.988 14-4.406 6.104.02 14.133 1.965 11.375-6.875-1.893-4.44-11.833-.833-17-2H800.89v2zM854.42 318.887c-2.187 0-4.434.687-6 2.25-.916-2.897-12.623-3.525-9.22 3.03.223 11.07.03 22.148.094 33.22 7.755 1.547 11.59-.827 9.625-9 .993-6.316-2.326-15.192 3.25-19.968 2.708-1.993 8.168 2.954 6.968-2.064.092-3.432 1.02-7.78-3.407-7.47-.44.035-.872-.088-1.31 0zM875.2 318.887c-7.483-.6-15.256 4.91-14.938 12.938 3.843-.38 10.583 3.294 10.438-2.438 1.634-3.248 7.672-3.1 9.813-.406 1.52 2.68.284 4.955-3.28 3.818-7.553-.545-17.616 2.404-18.158 11.37-1.444 7.3 4.584 14.682 12.156 13.844 4.165.466 8.81-2.09 11.314-4.156 2.382 5.008 8.99 4.157 13.406 2.938-.01-3.782 1.293-8.94-3.813-6.875-2.594-.932-.37-6.02-1.187-8.064.29-7.47 1.364-18.462-7.375-21.72-2.65-1.047-5.528-1.358-8.375-1.25zm6.03 22.563c.423 5.61-7.492 11.066-11.874 6.97-2.32-4.042 1.687-8.307 5.875-7.533 1.574.347 5.95-1.27 6 .563z" font-size="64.159" font-weight="400" letter-spacing="0" word-spacing="0" fill="#969696" filter="url(#d)" font-family="Liberation Sans"/><path style="line-height:125%;-inkscape-font-specification:Liberation Sans" d="M914.23 318.887c-3.046-.31-6.624 1.568-8.624 2.72.666-3.324-11.68-3.742-9.312.437.348 11.775.065 23.563.156 35.344 7.755 1.546 11.59-.828 9.625-9 1.098-6.436-2.702-15.724 3.375-20.344 3.17-1.936 8.94-.86 8.28 3.72.235 8.534.023 17.083.095 25.623 7.756 1.528 11.68-.78 9.687-9-1.106-8.647 2.735-19.404-3.593-26.593-2.57-2.42-6.29-3.002-9.69-2.906zM945.98 318.887c-9.45-.225-15.89 8.938-15.53 17.813-.99 9.03 3.38 20.14 13.53 21.125 8.95 1.982 18.666-4.902 18.314-14.375-3.694.456-10.337-2.99-10.188 2.53-1.512 5.767-11.112 4.12-11.187-1.686-.49-5.343-2.262-13.44 3.218-16.625 4.203-1.73 8.72 1.068 8.312 5.874 3.364-1.066 11.83 1.608 9.156-4.125-1.614-6.924-8.73-11.2-15.625-10.533z" font-size="64.159" font-weight="400" letter-spacing="0" word-spacing="0" fill="#969696" filter="url(#d)" font-family="Liberation Sans"/><path style="line-height:125%;-inkscape-font-specification:Liberation Sans" d="M978.794 318.887c-9.542-.393-16.737 8.71-16.274 17.905-.95 8.958 3.55 19.9 13.555 20.908 8.25 1.747 18.387-1.97 20.28-11.03-4.018-.75-9.065-4.602-10.374.78-4.036 4.71-13.29 2.185-13.28-4.375 1.505-3.476 10.53-.393 14.813-1.438 4.423-.16 11.028 1.748 9.062-4.75.392-8.982-6.12-18.43-15.813-18-.655-.025-1.313-.055-1.968 0zm.875 8.157c3.683-.404 6.497 2.78 6.843 6.25-4.007-.765-11.648 1.47-13.594-1 .78-3.168 3.417-5.434 6.75-5.25z" font-size="64.159" font-weight="400" letter-spacing="0" word-spacing="0" fill="#969696" filter="url(#d)" font-family="Liberation Sans"/><path style="line-height:125%;-inkscape-font-specification:Liberation Sans Bold" d="M635.7 370.48c.617 15.104-1.21 30.417.844 45.407 1.39 10.518 11.99 17.506 22.187 16.188 6.04-.247 12.096-3.324 15.564-8.156-.89 6.24 2.26 8.517 8.437 7.092 4.037-.87 12.94 2.78 10.345-4.25-.636-19.415-.11-38.855-.28-58.28h-19.19c-.68 13.378 1.375 27.337-1.03 40.374-1.116 6.643-10.568 11.004-15.125 5.25-4.814-8.185-1.54-18.684-2.53-27.78-.66-5.624 1.322-13.886-1-17.845H635.7v2zM729.23 367.42c-12.656-.22-24.484 8.882-27 21.374-3.576 14.394-.633 33.57 14.19 40.406 14.07 6.536 34.653 2.495 40.843-13.03 1.153-2.704 1.657-5.625 2.03-8.533-6.427-.283-12.854-.56-19.28-.875.235 5.81-4.104 12.07-10.438 10.907-8.178-1.366-8.606-11.64-8.688-18.19-.053-6.696.858-17.687 9.72-17.655 5.594-.516 8.873 4.895 8.937 9.97 6.49-.34 12.98-.66 19.47-1-1.164-12.093-11.293-22.273-23.463-23.157a43.365 43.365 0 0 0-6.32-.22zM766.013 348.73v82.282h19.218c.56-13.178-1.1-26.656.783-39.656.975-6.66 9.902-11.705 15.03-6.312 5.446 7.988 1.816 18.918 2.907 28.187.66 5.602-1.326 13.848 1 17.782h18.156c-.618-15.77 1.213-31.754-.843-47.406-1.52-10.782-12.474-17.78-22.938-16.094-5.487.43-10.794 2.977-14.188 7.375.21-9.382.04-18.77.094-28.156h-19.218v2zM858.544 367.42c-12.733-.3-24.81 8.656-27.063 21.342-3.016 14.235-.836 32.987 13.564 40.25 13.627 6.362 33.79 3.524 40.562-11.343 2.56-3.847 2.214-6.637-3.395-5.73-4.23.83-12.096-3.657-13.666 1.104-2.814 7.982-16.274 5.733-17.28-2.563-1.94-4.657-.27-7.23 5.124-5.81h31.5c.594-13.304-2.878-29.897-16.657-35.283-4.004-1.63-8.37-2.133-12.686-1.968zm.75 13.56c5.742-.666 9.428 5.023 9.656 10.157-5.896-.338-13.32.66-18.313-.468.308-4.775 3.334-9.837 8.657-9.69zM917.7 367.42c-10.436.032-22.873 5.867-23.656 17.53-1.64 9.552 5.888 18.123 14.958 19.973 6.906 2.906 15.582 1.804 21.417 6.683 2.29 4.61-3.89 6.717-7.47 6.375-5.606.535-13.702.152-14.29-7.027-4.576-1.184-11.735 1.484-17.313 1.795.616 8.706 8.586 17.032 17.697 18.296 12.395 2.085 28.32 2.183 36.656-8.813 6.496-9.094 2.61-23.478-8.188-27.28-7.843-3.833-17.407-3.15-24.874-7.5-2.593-3.016 1.6-6.294 4.625-5.78 4.977-.85 12.74-.374 12.936 6.23 4.455 1.505 11.858-.914 17.456-.99-.277-10.506-10.645-18.633-20.987-19.18-2.947-.446-5.986-.44-8.97-.31zM979.388 367.42c-10.44.03-22.84 5.86-23.657 17.53-1.635 9.543 5.877 18.13 14.96 19.973 6.87 2.91 15.534 1.792 21.354 6.62 2.455 4.583-3.804 6.83-7.406 6.438-5.626.55-13.674.126-14.29-7.027-4.576-1.184-11.736 1.484-17.313 1.795.616 8.706 8.585 17.032 17.696 18.296 12.396 2.085 28.32 2.183 36.658-8.813 6.494-9.094 2.617-23.477-8.188-27.28-7.905-3.862-17.352-3.18-24.875-7.5-2.583-3.01 1.594-6.3 4.625-5.78 4.997-.85 12.722-.39 12.936 6.23 4.457 1.505 11.86-.914 17.457-.99-.265-10.543-10.682-18.62-21.018-19.21-2.963-.382-5.956-.427-8.938-.28z" font-size="110.824" font-weight="700" letter-spacing="0" word-spacing="0" fill="#969696" filter="url(#e)" font-family="Liberation Sans"/><path d="M493.075 300.044v138.78c12.383-7.242 27.545-3.19 41.075-2.58 14.715 1.61 29.71 1.93 44.425.675 21.395-3.954 35.19-24.02 42.03-43.25 10.486-25.886 5.148-57.305-12.968-78.47-10.31-12.253-26.4-18.844-42.406-17.156-21.595-1.647-43.057 5.06-64.56 1.906-2.72.557-8.04-5.53-7.595-1.22v1.314zm51.875 16.875c13.807-.85 27.79 7.434 32.188 20.717 5.94 16.203 5.092 34.124 3.156 50.97-1.36 12.038-10.303 22.988-22.66 24.924-6.022 1.347-12.397 1.217-18.59 1.14l-.188-97.783c2.032.01 4.063.02 6.094.032z" fill="#969696" filter="url(#f)"/><path d="M341.163 56.52c-6.232 2.12-8.467 9.478-12.938 13.842-10.686 13.925-19.755 29.167-26.03 45.513-3.377 9.308-5.978 19.152-5.532 29.175-26.927-23.934-62.177-35.083-96.553-43.295-6.547-2.003-14.545-.318-16.987 6.9-10.18 21.668-14.852 45.6-18.18 69.145-4.45 30.995 1.383 63.012 13.43 91.828 4.012 9.79 9.284 23.45 22.132 22.755 34.575.886 69.96-6.862 99.658-24.958 2.428-.59 10.29-8.907 7.37-3.04-8.87 20.06-19.25 39.296-27.855 59.542-10.668 21.644-18.475 44.557-28.793 66.333-8.893 19.262-13.864 39.95-22.784 59.148-8.92 14.218-19.89 27.195-34 36.517-11.714 8.312-24.614 14.99-35.562 24.25-7.733 4.067-13.638 10.822-21.282 14.97-5.04 3.602-6.796 10.664-3.156 15.874 6.702 10.794 13.105 21.994 18.78 33.25.297 6.652-3.785 14.723 2.78 19.54 2.565 5.446 1.254 12.493.846 18.428-1.976 6.544-10.59 4.538-15.718 6.468-4.203.713-7.938 3.258-7.375 8-1.384 4.142 1.347 8.133 2.968 11.75 6.065 6.345 14.677 9.776 23.345 10.03 6.57.715 13.314-.156 19.906-.686-1.73 17.628-2.86 37.743 8.064 52.625 6.753 8.356 19.282 8.755 29.25 7.594 17.866-2.64 33.613-12.767 48.5-22.314 16.904-11 35.772-19.873 56.177-21.502 20.438-2.244 41.695-.868 60.424 8.1 13.09 6.015 26.847 11.618 37.014 22.056 9.913 8.575 19.192 20.466 33.51 20.66 9.723.744 20.445-1.81 26.157-10.314 9.896-10.77 11.112-25.776 14.688-39.406.446-5.42.625-10.865 1.125-16.28 8 1.59 16.14 1.25 24.125 0 6.51-1.606 12.497-5.87 17.03-10.814 2.025-4.636 3.42-10.648.126-15.03-2.68-5.718-8.857-7.965-14.783-8.22-3.258-8.784-5.452-19.12-.625-27.78 2.05-3.516 5.415-6.633 4.407-11.25-1.448-6.75 6.59-9.695 9.882-14.423 5.1-5.953 11.917-11.726 13.21-19.734-.58-8.735-9.036-12.967-13.906-19.19-17.318-14.764-34.494-29.738-52.406-43.843-8.018-7.48-15.73-15.35-20.625-25.28-10.118-14.452-12.304-32.385-19.416-48.268-8.797-21.838-16.844-43.963-27.99-64.67a586.767 586.767 0 0 0-32.22-59.893c-1.28-3.005-9.325-13.96-2.458-8.398 23.73 14.12 51.662 19.296 78.83 21.073 8.63-.237 20.58 3.565 25.753-5.784 8.762-13.73 13.834-29.588 17.97-45.25 6.905-27.733 7.712-57.39 1.246-85.474-4.9-19.51-9.135-39.522-16.972-58.017-2.87-9.7-14.227-10.493-22.53-8.57-29.712 4.84-56.238 21.688-76.445 43.654-3.593 5.083-3.755 2.175-4.3-1.845-7.23-25.496-18.227-50.176-32.905-72.282-2.43-2.784-4.712-3.673-8.375-3.22zm-106.47 386.405c-2.992 4.816-2.607-2.797 0 0zm248.157 61.28c9.976 6.537 20.04 13.306 28.47 22 5.685 4.875 14.752 11.638 9.88 20.263-3.232 7.06-10.77 11.025-16.07 16.176-6.087 1.446-13.345 2.642-16.436 8.843-1.735.636-1.675-7.194-2.844-9.875-3.622-13.32-7.328-26.888-8.97-40.56.805-5.692 3.664-11.558 5.97-16.846zm-283.53 1.408c5.64 7.092 6.878 16.802 3.763 25.29-2.626 12.088-7.318 23.722-9.666 35.733-.848 1.892-1.715 4.133-2.254 5.851-2.046-6.06-9.02-6.934-14.375-8.468-3.265-.585-7.57 2.68-9.22-1.595-5.66-8.357-13.94-16.605-14.218-27.156 3.003-4.174 9.456-5.293 13.22-8.97 10.59-7.25 21.56-14.506 32.75-20.688z" fill="#969696" filter="url(#g)"/><path d="M339.7 53.875c-1 .047-2.745 1.89-3.45 2.725-2.63 2.41-1.555 2.135-3.775 4.925-1.13 1.53-3.105 3.83-4.225 5.35-.68 1.01-4.545 6.025-5.225 7.025-3.6 6.03-.835.84-4.625 6.75-.9 1.48-3.005 4.975-3.875 6.475L311.15 93.7c-1.73 2.8-2.705 3.95-3.925 7.025l-3.85 8.65c-.66 1.65-1.725 5.295-2.425 6.925l-2.7 9.375-1 7.975c-.49 5.94-.045 3.84-.275 9.8l-2.775-1.125-4.85-4.125-5.475-4.15-6.75-4.75-7.95-4.825-8.325-4.5-8.725-3.875-8.925-3.65-9.425-3.275-8.35-2.65-9.525-2.975-9.275-2.475-7.425-1.85-5.1-.7c-1.565-.138-1.586.013-3.15-.125-.788.086-1.587.59-2.375.675l-1.975 1.1-2.4 3.025-2.725 5.125-2.275 5.8-2.825 8.2-3.15 10.525c-.86 2.9-2.014 8.617-2.75 11.55-.21 1.09-1.815 8.385-2.025 9.475-.35 1.33-1.66 9.65-1.95 11-.53 1.92-1.32 11.08-1.85 13-.22 1.38-.44 11.145-.65 12.525l-.025 13.6 1.225 12.125c.22 1.02 2.04 11.645 2.25 12.675l2.975 11.9 3.05 9.875 2.95 8.1 3.15 7.95 2.95 6.35 2.35 4.4 2.425 3.425 1.9 1.75 2.45 1.75 2.7.975 3.65.425 4.225.225 4.125.075 5.85-.175 7.1-.55 9.25-.975 10.825-1.55 10.275-2.2 10.15-2.825 9.725-3.1 7.6-3 6.775-3.075 6.9-3.5 6.65-3.925 5.225-3.45c.495-.395 3.993-3.075 5.8-4.2s1.92-.69 2.425-1.075l-3.875 10.125-3.875 8.55c-1.01 2.32-3.275 6.2-4.325 8.5-1.582 2.893-2.768 6.67-4.55 9.4l-4.775 9.85-5.025 11.275-5.25 11.5c-.75 1.94-4.745 10.26-5.625 12.15-2.213 4.648-2.873 6.088-4.775 10.875-1 2.33-2.805 7.45-3.775 9.8-1.44 2.95-2.84 6.32-4 9.4-.23.52-4.71 11.155-4.95 11.675-4.15 9.09-2.91 5.635-6.6 14.925-1.672 3.702-4.465 10.624-5.9 14.425-1.98 6.036-3.434 8.63-4.95 14.825-.46 1.23-3.69 9.685-4.15 10.925-1.3 3.33-7.797 20.26-5.775 14.475l-6.75 9.95-5.05 6.45c-2.983 3.496 1.097-.746-6.775 7.975l-7.375 6.5-9.05 6.95c-6.74 5.068-3.918 2.824-11.275 7.325-6.3 3.95-9.8 6.61-11.6 7.45-1.98 1-11.225 8.69-13.175 9.75-7.43 4.07-7.04 5.135-13.85 10.175-7.03 4.92-5.375 2.005-10.725 8.975-1.05 3.06-.33 3.065-.15 6.275.74 2.25 5.95 9.69 6.95 11.85l5.65 10.075 7.65 13.6c.32 3.06-.05 6.175-.75 9.175-.06 1.63-.05 4.86-.05 6.5l4.575 5.525c.74 6.02.625 12.12.075 18.15-.92 1.76-1.48 3.955-3.3 5.025-6.05 3-13.505 1.655-19.225 5.425-.4 1.07-.795 5.345-1.225 6.425.02 1.98 1.645 3.575 1.775 5.575 1.46 3.43 2.325 3.44 5.225 5.75 2.67 1.75 5.49 3.29 8.45 4.5 1.3.41 9.41 1.22 10.7 1.7l9.5-.175 11.1-.975c.32 1.81-1.37 14.82-1.1 16.65.227 5.013-.222 10.19.675 15.05.282 1.53.662 5.453 2 9.725 1.338 4.272 3.524 8.728 4.525 10.2 1 1.472 3.02 3.937 4.3 4.925l5.45 2.7 8.675 1.55c4.685.375 9.34-.026 13.9-.95 4.56-.924 9.02-2.365 13.35-4.075 5.57-2.845 11.393-5.203 16.725-8.5 5.44-2.62 9.865-6.94 15.375-9.45 5.83-3.55 6.09-4.265 12.2-7.325 2.948-1.49 8.353-4.46 11.475-5.55 1.2-.51 9.205-3.78 10.425-4.25l11.65-2.6 12.425-1.8 14.6-.575s9.454-.043 14.1.475c4.646.518 10.098 1.998 13.325 2.675 6.434 1.35 13 4.225 13 4.225 3.778 1.51 10.015 4.483 13.725 6.15 2.5 1.25 7.865 4.025 10.425 5.175 5.59 2.82 6.285 3.515 11.225 7.375 3.985 3.54 9.672 8.24 13.5 11.975 3.827 3.734 7.8 7.29 12.375 10.125 4.495 2.36 9.527 3.496 14.6 3.6 5.072.104 10.2-.83 14.875-2.625 3.425-2.17 6.205-4.995 8.625-8.15 2.42-3.155 4.48-6.625 6.425-10.075.24-.49 3.125-11.51 3.375-12l3.475-14.825c.31-.68.93-18.835 1.65-18.725 12.19 2.25 6.215.605 12.625 1.325 3.61.56 2.945-.095 12.925-1.075.875.752 9.875-4.8 9.875-4.8 3.85-3.94 2.755-1.22 6.225-5.95 0 0 1.29-7.9 1.35-8.35-3.39-6.3-.11-.52-3.3-6.1-4.87-3.95-5.125-3.65-5.125-3.65-.58-.12-8.075-1.375-8.075-1.375-1.87-5.953-1.7-3.35-3.35-12.475-1.11-7.71-.55-7.41-.15-11.4 3.14-7.3 2.225-5.925 2.575-6.425 1.68-4.42 3.565-3.155 4.175-7.775.18-1.82-.055-6.05.125-7.85 3.52-3.995 7.37-7.673 11.125-11.45 3.754-3.778 7.82-9.245 10.925-13.6.443-1.867.482-2.133.925-4L543 532.05c-2.287-3.155-7.213-7.07-9.5-10.225-4.025-3.98-4.184-4.062-12.275-10.7-9.145-7.503-8.785-8.18-15.05-12.85L497.1 490.3c-5.135-3.632-11.5-9.125-11.5-9.125-4.836-3.605-5.236-4.115-9.525-7.875-4.588-4.72-5.935-6.494-9.55-9.8l-7.325-9.825c3.89 5.394.123-1.56-3.525-6.775l-5.25-9.675c-1.01-2.99-1.935-6.42-2.975-9.4-.15-.57-2.85-8.09-3-8.65l-3.075-9.4c-1.838-4.862-3.86-10.18-6.05-14.9l-4.375-11.65c-.68-1.69-3.975-9.965-4.675-11.625-.89-2.07-3.96-9.55-4.75-11.65-3.026-6.812-2.315-4.085-5.275-10.925-1.61-3.73-5.105-10.025-6.775-13.725-1.55-3.18-4.22-8.185-5.6-11.425-1.35-3.17-4.11-8.135-5.5-11.275-1.218-2.233-4.023-7.282-5.075-9.6l-5.375-9.025L382.1 283.9l-5.6-9.525-3.9-7.25c-1.46-2.724-4.276-7.144-4.05-7.6l10.75 6.975 9.5 5.2 8.975 3.625 10.175 3.3 12.05 3.1c1.72.24 10.86 2.245 12.6 2.475 2.58.53 8.02.915 10.6 1.475l11 .9 10.375.5 8.25-.025 2.575-.725 2.675-1.725 2.15-2.85 3.075-4.625 2.55-5.35 2.775-6.35 2.9-7.65 3.375-9.675c1.71-5.06 1.61-5.815 3-10.975.73-2.97 2.265-10.725 3.075-13.675.32-1.99 1.32-11.225 1.6-13.225l.9-15.775c.06-5.3.025-13.565-.575-18.825l-1.875-13.275-2.425-12.525-3.55-13.9-3.05-11.35-2.625-9.8-2.625-7.75-2.1-7.075-1.875-4.025-1.8-3.675-1.75-2.4-1.7-1.225-2.075-1-2.625-.7-3.925-.075-5.025.375L459 88l-4 .85-5.5 1.525-8.975 2.9c-.52.155-3.957 1.518-7.675 3.15s-6.865 3.535-7.375 3.7l-7.55 4.2-6.825 4.475-6.35 4.925-7.625 6.45-9.125 9.1-7.525 7.15c-.72-3.25-.955-4.09-1.225-7.4-.78-2.59-1.88-7.21-2.8-9.75-.55-1.44-2.71-7.66-3.25-9.1-.64-1.66-2.865-7.33-3.475-9-1.74-3.95-2.945-7.38-4.725-11.3-.83-2.09-4.46-8.565-5.25-10.675-2.64-5.54-4.105-6.875-6.725-12.425-1.975-3.435-3.93-6.128-4.95-7.825-.51-.85-.792-1.46-1.325-2.175-.533-.714-1.72-1.537-3.25-2.85-.95.055-2.8-.098-3.8-.05zM480.775 497.6c1.852-.186 2.32.604 8 4.6 6.864 5.234 5.356 2.825 11.075 8.1 8.54 6.335 6.49 5.683 13.425 11.8 6.153 5.427 6.2 5.5 8.8 9.975l1.2 5.2-2.2 6.45c-2.95 4.89-5.94 7.205-10.5 10.725-1.8 1.84-3.635 3.645-5.575 5.325-2.875.43-5.708 1.485-7.375 1.9-1.668.415-5.78 1.38-7.175 4.1-.95.57-3.89 5.955-4.85 6.525-.76-1.19-3.12-15.57-3.85-16.75l-3.35-12.7c-1.95-6.68-2.885-15.52-4.975-22.15l-.225-6.175c1.36-3 2.178-6.384 3.375-9.45l3.3-7.325c.34-.06.635-.123.9-.15zm-281.725.35c-.158.088-.9.475-.9.475 3.33 3.42 4.89 7.97 6.55 11.95-.03 4.443 1.137 5.292.35 8.675-.788 3.382-1.995 9.92-2.825 13.225-1.63 5.98-3.44 10.7-5.2 16.65-1.75 7.18-1.565 7.97-3.725 15.05-.78-.02-2.77 9.16-3.55 9.15-1.24-2.74-2.505-6.055-4.525-8.275-.47-.33-6.19-2.17-6.65-2.5-4.51-1.94-6.245-.47-10.975-.15-1.33.31-10.95-14.015-11.7-14.875-4.408-7.864-2.64-3.627-6.35-13.6.1-2.74-.11-4.834 2.175-6.15.3-.19 9-5.375 9.3-5.575 9.386-6.606.125-.697 9.85-6.65 9.015-6.647.192.294 8.6-5.875l8.675-5.3c1.926-1.03 8.275-4.9 8.275-4.9 2.353-1.198 2.783-1.413 2.625-1.325z" fill="#040202"/><path d="M425.25 113.437l9.997-6.232 10.517-5.132 11.127-3.414 7.31-1.012 4.75.57 2.947 1.093 2.1 3.176 3.264 7.574 4.777 14.686c1.146 3.523 2.36 10.115 4.55 17.795 2.19 7.68 3.94 15.636 4.585 19.286 1.45 7.6 2.15 15.35 2.48 23.03.63 7.66-.33 14.97-.74 22.66-.7 7.5-2.07 14.91-3.17 22.36-1.59 7.89-4.28 15.51-6.87 23.12-2.55 6.45-4.46 13.37-8.8 18.92-1.43 2-3.93 2.84-6.3 2.98-8.98.51-17.93-.64-26.85-1.42-6.24-.615-12.426-1.645-18.545-2.99-6.12-1.343-12.17-3-18.146-4.87-7.83-2.43-14.84-6.85-21.74-11.16-5.44-3.59-11.07-7.33-14.86-12.75-1.92-2.79.26-6.01 1.23-8.72a35.483 35.483 0 0 0 2.982-13.132c.144-4.503-.58-9.028-2.23-13.258-2.09-4.58-5.11-8.64-7.62-12.97 2.87-6.44 6.15-12.71 9.82-18.73 4.3-6.53 7.87-13.5 12.22-20 5.25-8.285 11.144-16.373 17.93-23.545 6.79-7.172 14.47-13.288 23.29-17.913zM194.312 111.944l2.515-1.024 2.482-.6 3.553.096 5.818 1.228 12.91 3.73 13.815 5.332 20.64 8.872 15.256 9.688c3.19 2.61 7.763 6.732 12.178 11.003 4.415 4.27 8.674 8.69 11.238 11.892 5.127 6.406 9.875 13.15 14.735 19.714 1.98 3.33 5.53 6.57 4.81 10.77-2.38 3.335-4.81 6.755-6.798 10.38-1.99 3.627-3.536 7.46-4.15 11.62-.39 3.86-.08 8.6.58 12.43 1.12 4.11 3.02 6.95 4.68 10.85-3.386 2.705-8.65 6.14-13.998 9.46-5.35 3.316-11.378 6.506-15.318 8.342l-14.825 6.908c-4.49 1.435-12.037 4.382-16.618 5.456l-10.355 2.427-9.224 1.577-9.683 1.54c-1.388.22-5.53.73-8.475.936-2.946.205-4.984-.063-6.136-.063-2.307 0-.658-.267-3.47-.455l-3.323-1.49c-1.32-1.042-2.737-2.255-3.767-3.515l-3.565-6.688-3.564-9.233-3.08-10.664-4.287-16.954-2.502-17.366c-.55-9.32.05-6.65-.17-15.97-.1-2.86.246-10.905.707-16.142.46-5.236 1.44-15.663 1.804-18.488.88-6.25 2.13-9.84 3.81-15.96l3.145-10.47 2.195-6.843 2.653-6.25 2.087-3.705 1.702-2.374zM330.85 198.616c6.74-1.61 14.35-.68 19.74 3.96 5.376 3.935 8.29 10.355 8.627 16.91.336 6.555-1.906 13.245-6.846 17.72-5.4 5.92-14.3 6.63-21.71 5.05-5.11-.97-8.88-4.96-12.06-8.79-4.54-5.51-4.15-13.28-3.24-19.93 2.22-7.08 7.84-13.72 15.49-14.92zM328.29 385.406c4.666-.65 9.393-1.13 14.115-1.193 4.72-.062 9.436.293 14.076 1.313 6.01 1.335 12.06 2.942 17.842 5.173 5.78 2.23 11.294 5.086 16.23 8.916 4.164 3.57 8.334 7.382 11.89 11.645 3.554 4.263 6.494 8.976 8.2 14.346 1.98 6.79 2.93 13.93 2.41 20.99-1.16 7.955-4.31 15.365-8.772 21.94-4.462 6.577-10.234 12.32-16.64 16.94-4.57 3.235-9.502 6-14.687 8.125-5.185 2.126-10.622 3.61-16.202 4.286-8.01.35-16.09.45-24.06-.46-5.994-.955-12.077-2.103-17.92-3.905-5.844-1.802-11.45-4.26-16.49-7.834-4.034-2.84-7.982-5.98-11.44-9.553-3.46-3.572-6.43-7.577-8.51-12.147-2.57-5.62-4.577-11.65-5.584-17.804-1.008-6.154-1.015-12.43.415-18.546 1.37-4.4 3.318-8.615 5.735-12.548a60.148 60.148 0 0 1 8.546-10.852c3.57-3.88 7.6-7.42 12.42-9.66 4.486-2.18 9.116-4.115 13.863-5.684 4.748-1.57 9.613-2.77 14.568-3.486z" fill="#b00"/><path d="M297.75 402.916c.96-.694 1.955-1.32 2.982-1.885a30.333 30.333 0 0 1 3.164-1.502 33.04 33.04 0 0 1 3.31-1.144 36.305 36.305 0 0 1 3.42-.806 39.874 39.874 0 0 1 3.49-.488 43.44 43.44 0 0 1 3.525-.19 46.594 46.594 0 0 1 3.522.085c1.168.072 1.54.187 2.69.34l1.685.49 1.572.942c.24.145 1.51 1.332 1.51 1.332l1.102 1.524.878 1.47.564 1.56.34 1.335.207 2.245-.018 1.85-.207 2.238-.455 2.13-.85 2.64-2 3.33c-.636.76-1.88 2.047-2.588 2.71a19.932 19.932 0 0 1-2.198 1.796c-.752.525-1.736 1.076-2.72 1.778-.986.702-1.748.88-2.733 1.33 0 0-1.698.467-2.857.8-1.158.334-1.51.348-2.37.51l-2.753.352c-.753 0-1.79-.023-2.148.01-.358.03-1.36-.047-2.203-.086-.844-.038-1.586-.096-2.44-.138-.853-.042-1.45-.24-2.244-.364a20.266 20.266 0 0 1-2.292-.495c-.734-.205-1.37-.52-2.004-.843-.635-.324-1.157-.715-1.89-1.183l-1.367-1.416-1.028-1.248-.775-1.332-.774-1.332-.645-2.03-.136-2.2.176-2.653.493-1.894.55-1.725.97-1.723 1.03-1.555c.573-.868 1.2-1.69 1.952-2.444a18.574 18.574 0 0 1 2.566-2.122z" transform="translate(-9.112 -12.114) scale(1.0293)" fill="#fff" stroke="#e9e9e9" stroke-width="4" filter="url(#h)"/><path d="M425.316 438.754c.88-2.204 1.366-2.18 4.356-3.898 3.11-.18 6.88 1.15 6.88 1.15 2.397 2.916 2.036 3.08 3.46 6.36 0 0 1.85 6.02 2.75 9.04.64 2.33 1.32 4.65 2.05 6.96.93 3.438 1.88 6.872 2.66 10.35 1.16 3.86 2.59 10.957 3.74 14.82 2.9 9.01 1.87 6.12 4.03 15.34 1.1 4.3 1.8 6.59 2.71 10.94.77 2.982 2.634 9.59 3.2 12.62.46 1.89 2.42 9.81 2.88 11.71l3.18 12.42c.61 2.658 2.12 11.277 2.97 13.87l2.81 15.6 1.72 13.35c.87 3.9 1.16 11.16 2.08 15.06.3 3.38.5 6.76.75 10.15.8 4.28 1.03 10.25 1.44 14.56.47 5.33.474 10.282.223 15.23-.252 4.947-.36 13.09-.914 18.4l-1.85 12.42-4.73 11.44c-1.004 1.87-2.83 5.567-5.163 7.022l-5.386 3.358-6.62.18c-.954-.52-4.79-.673-7.408-1.647-2.62-.974-6.42-3.57-7.31-4.174-2.53-2.21-5.03-4.46-7.6-6.61l-.24-.36-10.77-10.22c-1.56-.77-10.7-7.97-12.23-8.75-2.265-1.055-9.74-5.287-12.02-6.3-2.608-1.254-8.52-3.803-11.29-4.61-2.205-.906-9.255-3.293-11.48-4.14-4.98-1.41-7.99-1.91-13.07-2.88-5.26-1.12-10.31-.95-15.57-2.01-6.39-.03-9.17-.15-15.55.06-3.98.63-11.24.73-15.22 1.33-3.68.67-8.58 1.69-12.25 2.42l-11.4 2.46-9.61 4.31-8.86 4.5-9.04 5.36c-4.16 2.465-4.98 4.05-10.46 7.18-1.07.64-6.94 4.09-8.01 4.74-3.156 1.877-8.808 4.78-12.06 6.48-3.42 1.344-5.257 2.885-8.83 3.83l-8.34 2.205-6.34.606-7.89-1.31-5.24-4.03-3.43-4.405-2.23-6.404-1.39-7.21-.59-8.01c.27-2.85.514-5.605.414-8.753-.1-3.147.655-8.287 1.145-11.107.27-2.02 1.68-10.05 1.95-12.07.42-1.67 1.93-10.96 2.25-12.65.88-3.55.7-4.77 1.46-8.34.58-2.55 1.29-5.47 1.64-8.06.407-3.74 1.938-7.372 2.32-11.09l2.44-11.52 3.13-11.55c.865-2.577 1.87-8.02 2.58-10.64 1.018-4.042 1.56-5.7 2.45-9.77.82-2.93 1.43-5.51 2.29-8.42.347-2.747 1.18-5.373 2.02-8 .477-3.462 1.76-6.756 2.83-10.07.84-3.09 1.97-6.09 2.81-9.18 1.274-3.212 1.375-4.945 2.52-8.2.3-2.074 2.014-7.934 2.83-9.84 2.192-5.93.6-2.323 3.53-9.05 1.78-5.523 1.992-6.093 3.19-9.81.902-1.927 1.943-4.248 3.18-9.14 1.885-4.67 2.376-5.495 2.89-7.55.88-2.24 2.83-6.13 3.51-8.43 2.06-4.23 2.032-8.087 7.132-9.527 2.11-.18 3.163.096 5.273.126 2.81 1.25 5.916 6.37 6.536 9.62l2.42 10.34c1.098 2.132 1.868 6.504 2.768 9.012.9 2.51 3.13 6.354 4.75 9.034 1.62 2.68 3.227 5.893 5.283 8.437 2.057 2.544 5.36 5.62 7.17 7.226 3.133 2.672 5.466 4.656 7.252 6.023 1.787 1.366 4.51 3.09 9.176 5.116l8.847 3.293 8.976 2.306 9.656 2.06 10.855 1.26 8.486.625 10.485-.574 10.036-1.76 7.235-2.16 7.286-2.578 6.485-3.377 7.77-5.554 7.52-6.208 7.12-7.807 3.84-6.814c.46-1.08 4.93-10.54 5.42-11.6l3.46-13.94c.43-4.97 1.896-10.202 1.896-10.202z" fill="#fefefe"/><text style="line-height:125%;-inkscape-font-specification:Nimbus Sans L Bold" x="627.813" y="425.969" font-size="110.824" font-weight="700" letter-spacing="0" word-spacing="0" fill="#b00" font-family="Nimbus Sans L"><tspan x="627.813" y="425.969" style="-inkscape-font-specification:Liberation Sans Bold" font-family="Liberation Sans">uchess</tspan></text><text style="line-height:125%;-inkscape-font-specification:Nimbus Sans L Bold" x="794.593" y="352.329" font-size="64.159" font-weight="700" letter-spacing="0" word-spacing="0" fill="#b00" font-family="Nimbus Sans L"><tspan x="794.593" y="352.329" style="-inkscape-font-specification:Liberation Sans" font-weight="400" font-family="Liberation Sans">France</tspan></text><path fill="url(#i)" d="M634.26 325.378h150.975v5.337H634.26z"/><path d="M280.004 537.38h42.387v84.776h-42.386z" fill="#002395"/><path d="M322.39 537.38v84.776h42.376V537.38H322.39z" fill="#fff"/><path d="M364.766 537.38v84.776h42.4V537.38z" fill="#ed2939"/><path d="M280.004 537.38v84.776H407.18V537.38H280.003z" fill="none" stroke="#e9e9e9"/><g style="line-height:125%;-inkscape-font-specification:Nimbus Sans L Bold" font-size="110.824" font-weight="700" letter-spacing="0" word-spacing="0" fill="#b00" font-family="Liberation Sans"><path d="M649.89 367.418v32.847c0 2.273.18 4.365.542 6.277.36 1.876.956 3.5 1.785 4.87.83 1.335 1.894 2.38 3.193 3.14 1.335.756 2.958 1.135 4.87 1.135 1.84 0 3.5-.397 4.98-1.19 1.514-.83 2.813-1.984 3.895-3.464 1.082-1.515 1.912-3.3 2.49-5.357.612-2.092.92-4.383.92-6.872v-31.386h15.205v49.351c.036 1.334.072 2.615.108 3.84.072 1.192.126 2.274.162 3.248l.163 2.11H673.7a73.16 73.16 0 0 0-.216-2.056c-.072-.974-.144-2.038-.217-3.192-.036-1.155-.09-2.31-.162-3.464a95.638 95.638 0 0 1-.054-2.922h-.27c-2.02 4.438-4.6 7.666-7.738 9.687-3.102 2.02-6.8 3.03-11.093 3.03-3.5 0-6.476-.576-8.93-1.73-2.453-1.155-4.455-2.724-6.006-4.71-1.515-2.02-2.616-4.4-3.3-7.14-.686-2.743-1.03-5.7-1.03-8.876v-37.176h15.207M727.705 427.05c-4.654 0-8.73-.72-12.23-2.164-3.463-1.443-6.35-3.48-8.657-6.114-2.31-2.634-4.04-5.79-5.195-9.47-1.155-3.716-1.732-7.81-1.732-12.284 0-4.87.632-9.2 1.895-12.987 1.263-3.823 3.085-7.034 5.466-9.63 2.38-2.635 5.304-4.637 8.767-6.008 3.5-1.37 7.467-2.056 11.905-2.056 3.788 0 7.143.505 10.065 1.515 2.958 1.01 5.5 2.4 7.63 4.168a20.61 20.61 0 0 1 5.14 6.17 24.784 24.784 0 0 1 2.76 7.683l-15.314.758c-.433-2.994-1.515-5.375-3.247-7.142-1.73-1.804-4.184-2.706-7.36-2.706-4.076 0-7.052 1.677-8.928 5.032-1.876 3.355-2.814 8.226-2.814 14.61 0 13.493 3.987 20.24 11.96 20.24 2.885 0 5.303-.903 7.25-2.706 1.95-1.84 3.157-4.564 3.626-8.17l15.26.702a23.43 23.43 0 0 1-2.49 7.792c-1.262 2.453-2.993 4.636-5.194 6.548-2.165 1.876-4.798 3.39-7.9 4.545-3.103 1.12-6.656 1.678-10.66 1.678M779.978 379.107c2.057-4.474 4.636-7.72 7.74-9.74 3.1-2.02 6.8-3.03 11.092-3.03 3.535 0 6.51.576 8.928 1.73 2.454 1.155 4.438 2.742 5.953 4.763 1.552 2.02 2.67 4.4 3.356 7.143.685 2.74 1.028 5.7 1.028 8.874v37.122h-15.152v-32.794c0-2.273-.18-4.347-.54-6.223-.362-1.912-.957-3.535-1.786-4.87-.83-1.37-1.912-2.435-3.247-3.193-1.336-.757-2.96-1.136-4.87-1.136-1.84 0-3.52.415-5.034 1.245-1.48.792-2.76 1.947-3.842 3.462-1.082 1.48-1.93 3.265-2.543 5.357-.576 2.055-.865 4.328-.865 6.817v31.332H764.99v-80.305h15.205v21.916c0 1.155-.018 2.328-.054 3.518a88.072 88.072 0 0 1-.162 3.3 362.22 362.22 0 0 1-.108 2.76c-.036.83-.072 1.48-.108 1.95h.216M856.71 427.05c-4.22 0-8.026-.612-11.417-1.84-3.355-1.262-6.223-3.155-8.604-5.68-2.382-2.562-4.204-5.755-5.466-9.58-1.263-3.86-1.894-8.368-1.894-13.527 0-5.592.74-10.3 2.218-14.124 1.515-3.825 3.536-6.91 6.06-9.254 2.562-2.38 5.502-4.094 8.82-5.14 3.32-1.047 6.82-1.57 10.5-1.57 4.617 0 8.55.812 11.796 2.435 3.283 1.59 5.97 3.825 8.063 6.71 2.092 2.887 3.625 6.35 4.6 10.39.973 4.005 1.46 8.443 1.46 13.313v.433h-37.554c0 2.453.216 4.744.65 6.872.432 2.092 1.136 3.914 2.11 5.465a11.04 11.04 0 0 0 3.788 3.626c1.552.865 3.428 1.298 5.628 1.298 2.67 0 4.852-.56 6.548-1.678 1.696-1.154 2.904-2.922 3.626-5.303l14.34 1.245c-.65 1.66-1.57 3.427-2.76 5.303-1.155 1.876-2.706 3.607-4.654 5.195-1.948 1.55-4.383 2.85-7.305 3.896-2.886 1.01-6.404 1.515-10.552 1.515m0-51.136c-1.55 0-3.012.27-4.382.812-1.335.505-2.508 1.335-3.518 2.49-.974 1.117-1.767 2.578-2.38 4.382-.614 1.804-.957 3.968-1.03 6.494h22.73c-.29-4.726-1.426-8.26-3.41-10.606-1.985-2.38-4.654-3.572-8.01-3.572M943.78 408.87c0 2.813-.597 5.338-1.787 7.575-1.154 2.236-2.85 4.148-5.087 5.736-2.236 1.552-4.978 2.76-8.225 3.626-3.246.83-6.943 1.245-11.092 1.245-3.716 0-7.07-.27-10.065-.81-2.994-.542-5.628-1.426-7.9-2.652-2.237-1.263-4.113-2.886-5.628-4.87-1.515-1.985-2.652-4.438-3.41-7.36l13.367-2.002c.432 1.623 1.028 2.94 1.785 3.95a7.626 7.626 0 0 0 2.814 2.327c1.12.54 2.418.902 3.897 1.082 1.515.18 3.23.27 5.14.27 1.733 0 3.338-.09 4.817-.27 1.515-.216 2.814-.56 3.896-1.028 1.12-.505 1.984-1.19 2.598-2.056.613-.9.92-2.02.92-3.354 0-1.515-.45-2.706-1.353-3.572-.866-.9-2.075-1.623-3.626-2.164-1.516-.577-3.32-1.064-5.412-1.46-2.056-.434-4.257-.92-6.602-1.462a82.523 82.523 0 0 1-7.25-1.948c-2.382-.758-4.51-1.786-6.386-3.085a15.23 15.23 0 0 1-4.546-4.924c-1.154-2.02-1.732-4.562-1.732-7.63 0-2.777.542-5.248 1.624-7.412 1.082-2.2 2.67-4.06 4.762-5.574 2.092-1.55 4.672-2.724 7.738-3.517 3.102-.83 6.656-1.245 10.66-1.245 3.175 0 6.133.307 8.875.92 2.742.577 5.196 1.515 7.36 2.814a17.53 17.53 0 0 1 5.41 4.87c1.48 1.984 2.51 4.383 3.086 7.197l-13.474 1.407c-.253-1.407-.704-2.56-1.353-3.463a7.162 7.162 0 0 0-2.436-2.22c-.938-.54-2.038-.9-3.3-1.08-1.264-.218-2.653-.326-4.168-.326-3.607 0-6.313.47-8.117 1.408-1.805.902-2.706 2.435-2.706 4.6 0 1.334.36 2.4 1.082 3.192.757.794 1.804 1.46 3.138 2.003 1.37.505 2.977.956 4.817 1.352 1.876.36 3.915.812 6.115 1.353a95.158 95.158 0 0 1 7.955 2.056c2.633.758 4.96 1.822 6.98 3.193a15.09 15.09 0 0 1 4.925 5.195c1.262 2.128 1.894 4.834 1.894 8.117M1005.468 408.87c0 2.813-.596 5.338-1.786 7.575-1.155 2.236-2.85 4.148-5.087 5.736-2.236 1.552-4.978 2.76-8.225 3.626-3.247.83-6.944 1.245-11.093 1.245-3.716 0-7.07-.27-10.065-.81-2.994-.542-5.628-1.426-7.9-2.652-2.237-1.263-4.113-2.886-5.628-4.87-1.516-1.985-2.652-4.438-3.41-7.36l13.366-2.002c.433 1.623 1.03 2.94 1.786 3.95a7.626 7.626 0 0 0 2.814 2.327c1.118.54 2.417.902 3.896 1.082 1.515.18 3.23.27 5.14.27 1.733 0 3.338-.09 4.817-.27 1.515-.216 2.814-.56 3.896-1.028 1.117-.505 1.983-1.19 2.597-2.056.613-.9.92-2.02.92-3.354 0-1.515-.45-2.706-1.353-3.572-.866-.9-2.075-1.623-3.626-2.164-1.515-.577-3.32-1.064-5.41-1.46-2.058-.434-4.258-.92-6.603-1.462a82.524 82.524 0 0 1-7.25-1.948c-2.382-.758-4.51-1.786-6.386-3.085a15.23 15.23 0 0 1-4.547-4.924c-1.154-2.02-1.732-4.562-1.732-7.63 0-2.777.543-5.248 1.625-7.412 1.082-2.2 2.67-4.06 4.762-5.574 2.092-1.55 4.67-2.724 7.738-3.517 3.102-.83 6.656-1.245 10.66-1.245 3.175 0 6.133.307 8.875.92 2.74.577 5.195 1.515 7.36 2.814a17.53 17.53 0 0 1 5.41 4.87c1.48 1.984 2.508 4.383 3.085 7.197l-13.474 1.407c-.252-1.407-.703-2.56-1.352-3.463a7.163 7.163 0 0 0-2.435-2.22c-.938-.54-2.04-.9-3.3-1.08-1.264-.218-2.653-.326-4.168-.326-3.607 0-6.313.47-8.117 1.408-1.804.902-2.705 2.435-2.705 4.6 0 1.334.36 2.4 1.082 3.192.757.794 1.804 1.46 3.138 2.003 1.37.505 2.977.956 4.816 1.352 1.875.36 3.914.812 6.114 1.353a95.158 95.158 0 0 1 7.955 2.056c2.632.758 4.96 1.822 6.98 3.193a15.09 15.09 0 0 1 4.924 5.195c1.262 2.128 1.894 4.834 1.894 8.117" style="-inkscape-font-specification:Liberation Sans Bold"/></g><g style="line-height:125%;-inkscape-font-specification:Nimbus Sans L Bold" font-size="64.159" font-weight="400" letter-spacing="0" word-spacing="0" fill="#b00" font-family="Liberation Sans"><path d="M805.84 313.076v16.415h24.623v4.95H805.84v17.89h-5.984v-44.142h31.36v4.888H805.84M838.264 352.33v-26.003c0-.71-.01-1.43-.03-2.16 0-.753-.012-1.474-.033-2.163-.02-.69-.04-1.337-.06-1.942-.022-.606-.043-1.15-.064-1.63h5.326c.02.48.042 1.035.062 1.66.042.607.074 1.233.094 1.88.042.648.063 1.275.063 1.88.022.585.032 1.086.032 1.504h.126c.397-1.295.814-2.412 1.253-3.352.46-.96.993-1.744 1.6-2.35a5.482 5.482 0 0 1 2.16-1.378c.836-.313 1.85-.47 3.04-.47.458 0 .897.042 1.315.125.417.064.74.127.97.19v5.168a7.19 7.19 0 0 0-1.315-.22 13.75 13.75 0 0 0-1.692-.093c-1.294 0-2.4.293-3.32.877-.898.585-1.64 1.4-2.225 2.444-.563 1.023-.98 2.256-1.253 3.697-.27 1.42-.407 2.976-.407 4.667v17.67h-5.64M868.213 352.956c-3.404 0-5.962-.898-7.675-2.694-1.713-1.796-2.57-4.26-2.57-7.394 0-2.234.42-4.062 1.254-5.482.857-1.44 1.963-2.57 3.32-3.383 1.38-.815 2.946-1.38 4.7-1.692a35.01 35.01 0 0 1 5.357-.532l7.612-.125v-1.848c0-1.4-.146-2.59-.44-3.572-.29-.98-.74-1.775-1.346-2.38-.606-.606-1.368-1.045-2.287-1.316-.9-.293-1.964-.44-3.196-.44-1.086 0-2.068.085-2.945.252-.878.145-1.64.427-2.288.844-.647.397-1.17.95-1.566 1.66-.397.69-.658 1.567-.784 2.632l-5.89-.532c.21-1.337.607-2.56 1.19-3.666.586-1.127 1.41-2.098 2.476-2.913 1.086-.815 2.433-1.44 4.04-1.88 1.63-.46 3.594-.69 5.89-.69 4.262 0 7.468.983 9.62 2.946 2.15 1.943 3.226 4.763 3.226 8.46v14.598c0 1.67.22 2.935.657 3.79.44.836 1.275 1.254 2.508 1.254a7.1 7.1 0 0 0 .94-.063c.313-.043.616-.095.908-.157v3.508a18.535 18.535 0 0 1-4.355.5c-1.065.003-1.984-.133-2.756-.405-.752-.292-1.368-.72-1.85-1.284-.48-.584-.845-1.294-1.095-2.13-.25-.856-.408-1.848-.47-2.976h-.188a19.168 19.168 0 0 1-2.005 2.945c-.71.876-1.546 1.628-2.506 2.255-.96.606-2.057 1.075-3.29 1.41-1.21.334-2.61.5-4.197.5m1.285-4.228c1.796 0 3.362-.324 4.7-.972 1.356-.668 2.474-1.514 3.35-2.537a10.452 10.452 0 0 0 2.006-3.352c.44-1.21.658-2.37.658-3.478V335.6l-6.172.126a29.64 29.64 0 0 0-3.947.313c-1.232.166-2.318.51-3.258 1.033a5.98 5.98 0 0 0-2.256 2.193c-.544.94-.815 2.172-.815 3.696 0 1.838.49 3.258 1.472 4.26 1.003 1.003 2.423 1.505 4.26 1.505M916.803 352.33v-21.492c0-1.65-.126-3.028-.376-4.135-.23-1.107-.616-1.994-1.16-2.663-.542-.69-1.263-1.17-2.16-1.44-.878-.293-1.975-.44-3.29-.44-1.337 0-2.548.24-3.634.72a7.536 7.536 0 0 0-2.757 2.038c-.752.877-1.337 1.973-1.755 3.29-.416 1.294-.625 2.787-.625 4.48v19.64h-5.64v-26.66c0-.71-.01-1.45-.03-2.223 0-.793-.01-1.535-.032-2.224-.02-.71-.042-1.315-.062-1.816-.02-.5-.04-.825-.062-.97h5.326c.02.103.04.385.062.845.02.458.042.99.063 1.596.04.585.072 1.19.093 1.817.02.606.03 1.118.03 1.535h.095a17.928 17.928 0 0 1 1.786-2.663 9.372 9.372 0 0 1 2.255-2.005c.856-.563 1.837-.992 2.944-1.284 1.107-.313 2.392-.47 3.854-.47 1.88 0 3.498.23 4.855.69 1.358.46 2.475 1.17 3.353 2.13.877.96 1.514 2.203 1.91 3.728.418 1.503.627 3.3.627 5.388v22.587h-5.67M935.286 335.224c0 1.943.136 3.728.407 5.357.293 1.63.773 3.04 1.442 4.23.668 1.17 1.545 2.08 2.63 2.726 1.108.648 2.466.97 4.074.97 2.004 0 3.674-.542 5.01-1.628 1.36-1.086 2.194-2.757 2.507-5.012l5.702.376a13.288 13.288 0 0 1-1.223 4.04 11.06 11.06 0 0 1-2.57 3.416c-1.064.98-2.37 1.775-3.915 2.38-1.545.586-3.33.878-5.357.878-2.652 0-4.908-.45-6.766-1.347-1.86-.9-3.374-2.13-4.544-3.698-1.15-1.587-1.984-3.446-2.506-5.576-.522-2.15-.783-4.48-.783-6.986 0-2.277.188-4.282.563-6.015.376-1.755.9-3.28 1.567-4.574.69-1.315 1.493-2.41 2.412-3.29.918-.897 1.91-1.607 2.975-2.13a13.19 13.19 0 0 1 3.415-1.158c1.19-.25 2.39-.376 3.603-.376 1.9 0 3.592.26 5.075.783 1.483.52 2.757 1.242 3.822 2.16a10.78 10.78 0 0 1 2.63 3.196 13.68 13.68 0 0 1 1.41 3.98l-5.795.438c-.292-1.88-1.033-3.373-2.224-4.48-1.19-1.107-2.88-1.66-5.074-1.66-1.608 0-2.955.27-4.04.814-1.066.522-1.933 1.326-2.6 2.412-.67 1.065-1.15 2.412-1.443 4.04-.27 1.63-.407 3.54-.407 5.734M967.397 336.57c0 1.777.178 3.416.533 4.92.376 1.483.94 2.767 1.692 3.853a8.147 8.147 0 0 0 2.944 2.507c1.19.584 2.62.877 4.292.877 2.444 0 4.397-.49 5.86-1.473 1.48-.98 2.484-2.224 3.006-3.728l4.95 1.41c-.355.94-.857 1.89-1.504 2.85-.626.94-1.472 1.797-2.537 2.57-1.066.752-2.402 1.378-4.01 1.88-1.588.48-3.51.72-5.765.72-5.012 0-8.834-1.493-11.466-4.48-2.61-2.987-3.916-7.425-3.916-13.314 0-3.175.397-5.86 1.19-8.052.794-2.213 1.88-4.01 3.26-5.388a12.085 12.085 0 0 1 4.823-2.976c1.837-.627 3.8-.94 5.89-.94 2.84 0 5.21.46 7.11 1.38 1.922.918 3.457 2.192 4.606 3.82 1.17 1.61 1.994 3.51 2.474 5.702.502 2.193.752 4.564.752 7.112v.75h-24.185m18.358-4.322c-.313-3.57-1.22-6.17-2.725-7.8-1.504-1.65-3.666-2.475-6.485-2.475-.94 0-1.932.156-2.976.47-1.025.292-1.975.825-2.852 1.597-.877.773-1.62 1.828-2.224 3.164-.606 1.316-.95 2.998-1.034 5.044h18.295" style="-inkscape-font-specification:Liberation Sans"/></g><path d="M492.05 296.975V432.45c20.54-9.517 43.667 0 55.5 0h20.3c35.93.515 52.682-46.493 53.175-67.725 0-37.39-23.175-67.714-51.775-67.75H548.225c-12.858 0-39.04 8.03-56.175 0zm41.775 14.85l11.3.025c28.893 0 35.45 24.813 35.45 50.9s-3.482 51.183-35.45 50.9L534 413.6z" fill="#bc0000"/></svg>