<svg xmlns="http://www.w3.org/2000/svg" width="300" height="117.884" viewBox="0 0 300 117.884"><path fill-rule="evenodd" clip-rule="evenodd" fill="#070707" d="M81.622 33.82l-2.256 9.007c-1.793-.377-3.498-.804-5.227-1.084-3.544-.572-7.096-.604-10.526.584-1.222.423-2.436 1.082-3.43 1.905-2.44 2.023-2.165 5.58.572 7.163 1.486.86 3.153 1.44 4.784 2.01 3.882 1.353 7.88 2.404 11.666 3.98 6.208 2.585 9.756 7.252 9.734 14.18-.023 6.99-3.578 11.73-9.73 14.69-5.08 2.44-10.486 2.648-15.968 2.247-3.755-.276-7.39-1.082-10.828-2.677-.784-.363-1.123-.696-.88-1.682.655-2.635 1.136-5.312 1.72-8.137.548.27 1.003.497 1.46.723 5.544 2.716 11.364 3.657 17.397 2.275 1.78-.408 3.568-1.32 5.036-2.424 3.134-2.35 2.898-7-.476-9-2.186-1.295-4.625-2.2-7.02-3.104-2.644-1-5.382-1.752-8.046-2.702-4.74-1.687-8.496-4.476-10.005-9.54-2.243-7.527 1.368-14.63 9.074-17.847 4.413-1.842 9.062-2.355 13.778-1.93 3.026.274 6.02.884 9.17 1.364"/><path fill-rule="evenodd" clip-rule="evenodd" fill="#E75112" d="M40.838 92.24v9.163H20.234v-82.42h20.573v9.162c-.365.02-.76.06-1.16.06-2.91.006-5.82.056-8.728-.024-1.136-.03-1.47.268-1.466 1.44.042 12.85.023 25.7.023 38.553 0 7.56.022 15.118-.02 22.678-.007 1.066.248 1.446 1.376 1.416 2.905-.077 5.816-.025 8.73-.025h1.275z"/><path fill-rule="evenodd" clip-rule="evenodd" fill="#070707" d="M126.504 16.837c-.85 2.644-1.645 5.113-2.426 7.548-2.333-.426-4.573-.97-6.845-1.208-1.705-.18-3.477-.116-5.176.118-1.753.242-3.026 1.438-3.31 3.17-.407 2.473-.503 4.997-.747 7.65h13.496v9.477h-13.358v43.103h-9.51V43.66H92.11v-9.48h6.48c.056-1.02.053-1.917.172-2.798.335-2.54.513-5.126 1.135-7.597 1.132-4.48 4.068-7.304 8.634-8.338 6.09-1.382 11.99-.388 17.97 1.39"/><path fill-rule="evenodd" clip-rule="evenodd" fill="#E75112" d="M278.426 101.454H257.89V92.24h2.253c2.607 0 5.22-.047 7.823.022 1.033.027 1.26-.338 1.257-1.304-.03-13.834-.02-27.668-.02-41.503 0-6.614-.032-13.23.03-19.843.012-1.194-.36-1.453-1.474-1.43-3.248.07-6.492.024-9.855.024v-9.178h20.52v82.426z"/><path fill-rule="evenodd" clip-rule="evenodd" fill="#070707" d="M253.86 35.925l-3.628 8.655c-1.06-.408-2.068-.792-3.074-1.183-6.61-2.58-12.146-.908-16.712 4.317-1.29 1.475-2.416 3.097-3.533 4.71-.295.42-.376 1.055-.376 1.592-.022 10.432-.018 20.863-.018 31.293v1.393h-9.054V34.225h9.046v8.013c.686-.916 1.164-1.567 1.657-2.208 4.603-6.012 10.684-8.094 18.036-6.728 2.643.492 5.19 1.28 7.654 2.623M205.647 86.72h-9.04V43.67h-15.02v-9.434h24.06z"/><path fill-rule="evenodd" clip-rule="evenodd" fill="#E75112" d="M131.208 55.887h40.795v9.18h-40.795zM131.188 34.28h40.805v9.084h-40.805zM131.186 77.562h40.81v9.083h-40.81z"/><path fill-rule="evenodd" clip-rule="evenodd" fill="#070707" d="M201.3 14.813c3.306.008 5.937 2.656 5.942 5.987.007 3.426-2.604 6.072-5.974 6.06-3.202-.014-5.828-2.77-5.82-6.11.01-3.285 2.63-5.944 5.85-5.937"/></svg>