<svg id="Layer_1" xmlns="http://www.w3.org/2000/svg" viewBox="1019 750.8 305.5 100"><style>.st0{fill:#757575}</style><path class="st0" d="M1071.7 814l-39.5-63.2h-10.9c-2.2 0-3 1.5-1.9 3.4l26.5 43.3.1.2 18 28.7 7.7-12.4zM1077.8 804.2c1.1-1.8 1.1-4.9 0-6.7l-26.8-43.3c-1.1-1.8-3.9-3.4-6-3.4h-11l38.6 61.8 5.2-8.4zM1055.4 815.4l-22.1 35.4h11.8c2.2 0 4.9-1.5 6-3.4l10.7-17.3c0-.1.1-.2.3-.5l1.1-1.8-7.8-12.4zM1046 804.2l-26.5 43.3c-1.1 1.9-.3 3.4 1.9 3.4h10.1l23-36.8-7.7-12.4c-.1.9-.4 1.8-.8 2.5z"/><g><path class="st0" d="M1112.4 799.2h15.5v19.3c-4.2 1.4-8.8 2.2-13.8 2.2-5.5 0-9.8-1.6-12.8-4.8-3-3.2-4.5-7.8-4.5-13.7 0-5.8 1.6-10.3 4.9-13.5 3.3-3.2 7.9-4.8 13.9-4.8 2.3 0 4.4.2 6.4.6s3.7 1 5.2 1.6l-3.1 7.6c-2.6-1.3-5.4-1.9-8.5-1.9-2.8 0-5 .9-6.6 2.8-1.5 1.8-2.3 4.5-2.3 7.9 0 3.3.7 5.9 2.1 7.7 1.4 1.8 3.4 2.6 6 2.6 1.4 0 2.8-.1 4-.4v-5.6h-6.4v-7.6zM1162.9 801.5c0 6-1.6 10.6-4.9 13.8-3.3 3.2-7.9 4.9-13.9 4.9h-11.6v-35.8h12.4c5.7 0 10.2 1.5 13.3 4.4 3.1 2.9 4.7 7.1 4.7 12.7zm-10.1.3c0-3.3-.6-5.7-1.9-7.3-1.3-1.6-3.3-2.4-5.9-2.4h-2.8v20.1h2.2c2.9 0 5.1-.9 6.5-2.6s1.9-4.3 1.9-7.8zM1180.9 799.2h15.5v19.3c-4.2 1.4-8.8 2.2-13.8 2.2-5.5 0-9.8-1.6-12.8-4.8-3-3.2-4.5-7.8-4.5-13.7 0-5.8 1.7-10.3 5-13.5 3.3-3.2 7.9-4.8 13.9-4.8 2.3 0 4.4.2 6.4.6s3.7 1 5.2 1.6l-3.1 7.6c-2.6-1.3-5.4-1.9-8.5-1.9-2.8 0-5 .9-6.6 2.8-1.5 1.8-2.3 4.5-2.3 7.9 0 3.3.7 5.9 2.1 7.7 1.4 1.8 3.4 2.6 6 2.6 1.4 0 2.8-.1 4-.4v-5.6h-6.4v-7.6zM1246 795.2c0 3.7-1.2 6.6-3.7 8.6s-5.9 3-10.5 3h-3.7v13.4h-5.9v-35.8h10.3c4.5 0 7.8.9 10.1 2.7 2.3 1.8 3.4 4.5 3.4 8.1zm-17.8 6.6h3.1c3 0 5.2-.5 6.6-1.6 1.4-1 2.1-2.7 2.1-4.9 0-2.1-.6-3.6-1.9-4.6-1.3-1-3.2-1.5-5.9-1.5h-4.1v12.6zM1266.8 820.2l-1.2-3.8h-.2c-1.3 1.7-2.6 2.8-3.9 3.4s-3 .9-5.1.9c-2.7 0-4.7-.7-6.2-2.2-1.5-1.4-2.2-3.5-2.2-6.1 0-2.8 1-4.9 3.1-6.3 2.1-1.4 5.2-2.2 9.5-2.3l4.7-.1v-1.4c0-1.7-.4-3-1.2-3.9-.8-.9-2.1-1.3-3.8-1.3-1.4 0-2.7.2-4 .6-1.3.4-2.5.9-3.7 1.4l-1.9-4.1c1.5-.8 3.1-1.4 4.8-1.8s3.4-.6 4.9-.6c3.4 0 6 .8 7.8 2.3 1.8 1.5 2.6 3.9 2.6 7.1v18.3h-4zm-8.6-4c2.1 0 3.8-.6 5-1.8 1.3-1.2 1.9-2.8 1.9-4.9v-2.4l-3.5.1c-2.7.1-4.7.6-5.9 1.4s-1.8 2-1.8 3.7c0 1.2.4 2.1 1.1 2.8.7.8 1.7 1.1 3.2 1.1zM1289.9 792.6c1.2 0 2.1.1 2.9.2l-.6 5.4c-.8-.2-1.7-.3-2.5-.3-2.3 0-4.2.8-5.6 2.3-1.4 1.5-2.1 3.5-2.1 5.9v14.2h-5.8v-27.1h4.5l.8 4.8h.3c.9-1.6 2.1-2.9 3.5-3.8s2.9-1.6 4.6-1.6zM1294.7 785.9c0-1 .3-1.8.8-2.4.6-.6 1.4-.8 2.4-.8s1.8.3 2.4.8.8 1.3.8 2.4c0 1-.3 1.8-.8 2.3s-1.4.8-2.4.8-1.8-.3-2.4-.8c-.5-.6-.8-1.3-.8-2.3zm6.1 34.3h-5.8v-27.1h5.8v27.1zM1324.5 812.4c0 2.6-1 4.7-2.9 6.1s-4.7 2.1-8.3 2.1c-3.6 0-6.5-.5-8.7-1.6v-5c3.2 1.5 6.2 2.2 8.9 2.2 3.5 0 5.3-1.1 5.3-3.2 0-.7-.2-1.3-.6-1.7-.4-.5-1-.9-1.9-1.4-.9-.5-2.1-1-3.7-1.7-3.1-1.2-5.2-2.4-6.3-3.6s-1.7-2.8-1.7-4.7c0-2.3.9-4.1 2.8-5.4 1.9-1.3 4.4-1.9 7.6-1.9 3.2 0 6.2.6 9 1.9l-1.9 4.3c-2.9-1.2-5.4-1.8-7.4-1.8-3 0-4.6.9-4.6 2.6 0 .8.4 1.6 1.2 2.2.8.6 2.5 1.4 5.2 2.4 2.2.9 3.9 1.7 4.9 2.4s1.8 1.5 2.3 2.5.8 2 .8 3.3z"/></g></svg>