<svg id="Layer_1" xmlns="http://www.w3.org/2000/svg" viewBox="410.4 3024.1 615.2 200"><style>.st0{fill:#FFF}</style><path class="st0" d="M515.9 3150.5l-79-126.4h-21.8c-4.4 0-6 3-3.8 6.7l53 86.5.3.4 35.9 57.5 15.4-24.7zM528.1 3130.8c2.3-3.7 2.3-9.7 0-13.4l-53.6-86.6c-2.3-3.7-7.7-6.7-12-6.7h-22l77.2 123.5 10.4-16.8zM483.2 3153.3l-44.2 70.8h23.5c4.3 0 9.8-3 12-6.7l21.4-34.6c.1-.1.2-.4.6-1l2.2-3.6-15.5-24.9zM464.4 3130.8l-53 86.5c-2.3 3.7-.6 6.7 3.8 6.7h20.3l46-73.6-15.4-24.8c-.3 1.9-.9 3.7-1.7 5.2z"/><g><path class="st0" d="M595.3 3081.4h23.1v28.9c-6.3 2.1-13.2 3.2-20.7 3.2-8.3 0-14.6-2.4-19.1-7.2-4.5-4.8-6.8-11.6-6.8-20.5 0-8.6 2.5-15.4 7.4-20.2 4.9-4.8 11.8-7.2 20.7-7.2 3.4 0 6.5.3 9.5 1 3 .6 5.6 1.4 7.8 2.4l-4.6 11.4c-3.9-1.9-8.1-2.9-12.7-2.9-4.2 0-7.5 1.4-9.8 4.1-2.3 2.7-3.5 6.7-3.5 11.8 0 5 1 8.8 3.1 11.4 2.1 2.6 5.1 3.9 9 3.9 2.1 0 4.1-.2 5.9-.6v-8.4H595v-11.1zM669.9 3084.8c0 8.9-2.5 15.8-7.4 20.7s-11.8 7.2-20.7 7.2h-17.3v-53.5H643c8.6 0 15.2 2.2 19.9 6.6s7 10.7 7 19zm-15 .5c0-4.9-1-8.5-2.9-10.9-1.9-2.4-4.9-3.6-8.8-3.6H639v30h3.2c4.4 0 7.6-1.3 9.7-3.8s3-6.4 3-11.7zM696.1 3081.4h23.1v28.9c-6.3 2.1-13.2 3.2-20.7 3.2-8.3 0-14.6-2.4-19.1-7.2-4.5-4.8-6.8-11.6-6.8-20.5 0-8.6 2.5-15.4 7.4-20.2 4.9-4.8 11.8-7.2 20.7-7.2 3.4 0 6.5.3 9.5 1 3 .6 5.6 1.4 7.8 2.4l-4.6 11.4c-3.9-1.9-8.1-2.9-12.7-2.9-4.2 0-7.5 1.4-9.8 4.1-2.3 2.7-3.5 6.7-3.5 11.8 0 5 1 8.8 3.1 11.4 2.1 2.6 5.1 3.9 9 3.9 2.1 0 4.1-.2 5.9-.6v-8.4h-9.6v-11.1zM799.9 3084.8c0 8.9-2.5 15.8-7.4 20.7s-11.8 7.2-20.7 7.2h-17.3v-53.5H773c8.6 0 15.2 2.2 19.9 6.6s7 10.7 7 19zm-15 .5c0-4.9-1-8.5-2.9-10.9-1.9-2.4-4.9-3.6-8.8-3.6H769v30h3.2c4.4 0 7.6-1.3 9.7-3.8s3-6.4 3-11.7zM823.8 3113.4c-6.9 0-12.3-1.8-16.1-5.5-3.8-3.7-5.7-8.9-5.7-15.7 0-7 1.8-12.4 5.3-16.1s8.6-5.6 15.2-5.6c6.2 0 11.1 1.6 14.5 4.9 3.4 3.3 5.1 8 5.1 14.1v6.4h-25.6c.1 2.3.9 4.1 2.5 5.5 1.6 1.3 3.8 2 6.5 2 2.5 0 4.8-.2 6.9-.7 2.1-.5 4.4-1.3 6.9-2.4v10.3c-2.2 1.1-4.6 1.9-7 2.4s-5.2.4-8.5.4zm-.8-33.2c-1.7 0-3.1.5-4.2 1.6s-1.8 2.7-2 5H829c0-2-.6-3.6-1.7-4.8-1.1-1.2-2.5-1.8-4.3-1.8zM856.1 3112.7l-15.8-41.5h14.9l7 24.5c0 .1.1.3.1.6s.1.6.2 1 .1.8.2 1.3.1.9.1 1.3h.3c0-1.3.2-2.6.7-4.1l7.4-24.6h14.9l-15.8 41.5h-14.2zM901.3 3112.7H887v-53.5h31.6v11.6h-17.4v10.2h16v11.6h-16v20.1zM941.8 3113.4c-6.9 0-12.3-1.8-16.1-5.5-3.8-3.7-5.7-8.9-5.7-15.7 0-7 1.8-12.4 5.3-16.1s8.6-5.6 15.2-5.6c6.2 0 11.1 1.6 14.5 4.9 3.4 3.3 5.1 8 5.1 14.1v6.4h-25.6c.1 2.3.9 4.1 2.5 5.5 1.6 1.3 3.8 2 6.5 2 2.5 0 4.8-.2 6.9-.7 2.1-.5 4.4-1.3 6.9-2.4v10.3c-2.2 1.1-4.6 1.9-7 2.4s-5.2.4-8.5.4zm-.9-33.2c-1.7 0-3.1.5-4.2 1.6s-1.8 2.7-2 5H947c0-2-.6-3.6-1.7-4.8-1.1-1.2-2.5-1.8-4.4-1.8zM995.3 3100c0 4.4-1.5 7.8-4.5 10.1s-7.4 3.4-13 3.4c-3.1 0-5.7-.2-8-.5s-4.6-.9-7-1.8v-11.5c2.2 1 4.7 1.8 7.3 2.4 2.6.6 5 1 7.1 1 3.1 0 4.7-.7 4.7-2.1 0-.7-.4-1.4-1.3-2-.9-.6-3.4-1.7-7.6-3.4-3.8-1.6-6.5-3.3-8-5.3s-2.3-4.5-2.3-7.6c0-3.9 1.5-6.9 4.5-9 3-2.1 7.2-3.2 12.6-3.2 2.7 0 5.3.3 7.7.9 2.4.6 4.9 1.5 7.5 2.6l-3.9 9.2c-1.9-.9-3.9-1.6-6-2.2s-3.9-.9-5.2-.9c-2.3 0-3.5.6-3.5 1.7 0 .7.4 1.3 1.2 1.8s3.2 1.5 7.1 3.1c2.9 1.2 5.1 2.4 6.5 3.5 1.4 1.1 2.5 2.5 3.1 4 .6 1.7 1 3.5 1 5.8zM1018.7 3102.1c1.9 0 4.2-.5 6.9-1.4v10.4c-1.9.8-3.8 1.4-5.5 1.8-1.7.4-3.8.5-6.1.5-4.8 0-8.3-1.2-10.4-3.5-2.1-2.4-3.2-6-3.2-10.9v-17.1h-5v-5.8l6.4-4.5 3.7-8.7h9.4v8.3h10.2v10.7h-10.2v16.2c-.1 2.7 1.2 4 3.8 4z"/></g><g><path class="st0" d="M612.2 3150.4c0 4.9-1.6 8.7-4.8 11.3s-7.8 3.9-13.8 3.9h-4.9v17.6H581v-47.1h13.6c5.9 0 10.3 1.2 13.2 3.6s4.4 6 4.4 10.7zm-23.5 8.8h4.1c4 0 6.9-.7 8.7-2.1s2.8-3.5 2.8-6.4c0-2.7-.8-4.7-2.5-6.1s-4.2-2-7.7-2h-5.3v16.6zM643.3 3183.3l-1.5-5h-.3c-1.7 2.2-3.4 3.6-5.2 4.4-1.7.8-4 1.2-6.7 1.2-3.5 0-6.2-.9-8.2-2.8-2-1.9-2.9-4.6-2.9-8 0-3.7 1.4-6.4 4.1-8.3s6.9-2.9 12.5-3.1l6.2-.2v-1.9c0-2.3-.5-4-1.6-5.1-1.1-1.1-2.7-1.7-4.9-1.7-1.8 0-3.6.3-5.3.8s-3.3 1.2-4.8 1.9l-2.4-5.4c1.9-1 4-1.8 6.3-2.3 2.3-.5 4.5-.8 6.5-.8 4.5 0 8 1 10.3 3s3.5 5.1 3.5 9.3v24h-5.6zm-11.3-5.2c2.8 0 5-.8 6.6-2.3 1.7-1.5 2.5-3.7 2.5-6.5v-3.1l-4.6.2c-3.6.1-6.2.7-7.8 1.8-1.6 1.1-2.4 2.7-2.4 4.9 0 1.6.5 2.8 1.4 3.7 1 .9 2.4 1.3 4.3 1.3zM677.5 3147c1.5 0 2.8.1 3.8.3l-.7 7.1c-1.1-.3-2.2-.4-3.4-.4-3 0-5.5 1-7.4 3s-2.8 4.5-2.8 7.7v18.6h-7.6v-35.6h5.9l1 6.3h.4c1.2-2.1 2.7-3.8 4.6-5.1 2-1.3 4-1.9 6.2-1.9zM687.6 3138.2c0-1.4.4-2.4 1.1-3.1.7-.7 1.8-1.1 3.2-1.1 1.3 0 2.4.4 3.1 1.1.7.7 1.1 1.8 1.1 3.1s-.4 2.3-1.1 3c-.7.7-1.8 1.1-3.1 1.1-1.4 0-2.4-.4-3.2-1.1-.7-.7-1.1-1.7-1.1-3zm8.1 45.1h-7.6v-35.6h7.6v35.6zM730.6 3173.1c0 3.5-1.3 6.2-3.8 8s-6.2 2.8-10.9 2.8-8.6-.7-11.4-2.2v-6.5c4.2 1.9 8.1 2.9 11.7 2.9 4.7 0 7-1.4 7-4.2 0-.9-.3-1.7-.8-2.3s-1.4-1.2-2.5-1.9-2.8-1.4-4.9-2.2c-4.1-1.6-6.9-3.2-8.3-4.8-1.5-1.6-2.2-3.7-2.2-6.2 0-3.1 1.2-5.4 3.7-7.1 2.5-1.7 5.8-2.5 10-2.5s8.2.8 11.9 2.5l-2.4 5.7c-3.8-1.6-7.1-2.4-9.7-2.4-4 0-6 1.1-6 3.4 0 1.1.5 2.1 1.6 2.8s3.3 1.8 6.8 3.2c2.9 1.1 5.1 2.2 6.4 3.1s2.3 2 3 3.3.8 2.9.8 4.6zM785.8 3183.3h-31.9v-5.7l12.1-12.2c3.6-3.7 6-6.3 7.1-7.8 1.2-1.5 2-3 2.6-4.3s.8-2.8.8-4.4c0-2.1-.6-3.8-1.9-5-1.3-1.2-3-1.8-5.3-1.8-1.8 0-3.6.3-5.2 1s-3.6 1.9-5.8 3.6l-4.1-5c2.6-2.2 5.2-3.8 7.6-4.7s5.1-1.4 7.9-1.4c4.4 0 7.9 1.1 10.5 3.4 2.6 2.3 4 5.4 4 9.2 0 2.1-.4 4.1-1.1 6.1s-1.9 3.9-3.5 5.9c-1.6 2-4.2 4.8-7.9 8.2l-8.2 7.9v.3h22.4v6.7zM823.7 3159.7c0 8.2-1.3 14.3-3.9 18.2s-6.7 6-12.1 6c-5.2 0-9.2-2.1-11.9-6.2s-4.1-10.1-4.1-18c0-8.3 1.3-14.4 3.9-18.4 2.6-3.9 6.6-5.9 12-5.9 5.3 0 9.2 2.1 12 6.2s4.1 10.2 4.1 18.1zm-24.4 0c0 6.4.7 11 2 13.8 1.3 2.8 3.4 4.1 6.3 4.1s5-1.4 6.4-4.2c1.3-2.8 2-7.4 2-13.7 0-6.3-.7-10.9-2-13.7-1.3-2.8-3.5-4.2-6.4-4.2s-5 1.4-6.3 4.2c-1.3 2.7-2 7.3-2 13.7zM851.8 3183.3h-7.6v-30.4c0-3.6.1-6.5.3-8.6-.5.5-1.1 1.1-1.8 1.7s-3.1 2.6-7.2 5.9l-3.8-4.8 13.9-10.9h6.3v47.1zM867.6 3163.2c0-18.4 7.5-27.7 22.5-27.7 2.4 0 4.4.2 6 .5v6.3c-1.6-.5-3.5-.7-5.7-.7-5 0-8.8 1.4-11.4 4.1s-3.9 7-4.1 13h.4c1-1.7 2.4-3.1 4.3-4 1.8-1 4-1.4 6.4-1.4 4.3 0 7.6 1.3 10 3.9s3.6 6.2 3.6 10.7c0 4.9-1.4 8.8-4.1 11.7-2.8 2.9-6.5 4.3-11.3 4.3-3.4 0-6.3-.8-8.8-2.4-2.5-1.6-4.4-4-5.8-7.1-1.3-3.1-2-6.8-2-11.2zm16.4 14.5c2.6 0 4.6-.8 6-2.5s2.1-4.1 2.1-7.2c0-2.7-.7-4.8-2-6.4-1.3-1.5-3.3-2.3-5.9-2.3-1.6 0-3.1.3-4.5 1s-2.5 1.7-3.3 2.9c-.8 1.2-1.2 2.5-1.2 3.7 0 3 .8 5.6 2.5 7.7 1.7 2 3.8 3.1 6.3 3.1z"/></g></svg>